<svg width="140" height="24" viewBox="0 0 140 24" fill="none" xmlns="http://www.w3.org/2000/svg">
<path d="M38.8115 11.3447C38.8115 12.32 38.6475 13.1722 38.3193 13.9014C37.9912 14.626 37.5264 15.1797 36.9248 15.5625C36.3232 15.9453 35.6214 16.1367 34.8193 16.1367C34.0355 16.1367 33.3405 15.9453 32.7344 15.5625C32.1283 15.1751 31.6566 14.626 31.3193 13.915C30.9867 13.1995 30.8158 12.3724 30.8066 11.4336V10.7158C30.8066 9.75879 30.973 8.91341 31.3057 8.17969C31.6383 7.44596 32.1077 6.88542 32.7139 6.49805C33.3245 6.10612 34.0218 5.91016 34.8057 5.91016C35.6032 5.91016 36.305 6.10384 36.9111 6.49121C37.5218 6.87402 37.9912 7.43229 38.3193 8.16602C38.6475 8.89518 38.8115 9.74512 38.8115 10.7158V11.3447ZM37.5059 10.7021C37.5059 9.52181 37.2689 8.61719 36.7949 7.98828C36.321 7.35482 35.6579 7.03809 34.8057 7.03809C33.9762 7.03809 33.3223 7.35482 32.8438 7.98828C32.3698 8.61719 32.126 9.49219 32.1123 10.6133V11.3447C32.1123 12.4886 32.3516 13.3887 32.8301 14.0449C33.3132 14.6966 33.9762 15.0225 34.8193 15.0225C35.667 15.0225 36.3232 14.7148 36.7881 14.0996C37.2529 13.4798 37.4922 12.5934 37.5059 11.4404V10.7021ZM43.5488 15.1045C44 15.1045 44.3942 14.9678 44.7314 14.6943C45.0687 14.4209 45.2555 14.0791 45.292 13.6689H46.4883C46.4655 14.0928 46.3197 14.4961 46.0508 14.8789C45.7819 15.2617 45.4219 15.5671 44.9707 15.7949C44.5241 16.0228 44.0501 16.1367 43.5488 16.1367C42.5417 16.1367 41.7396 15.8018 41.1426 15.1318C40.5501 14.4574 40.2539 13.5368 40.2539 12.3701V12.1582C40.2539 11.4382 40.3861 10.7979 40.6504 10.2373C40.9147 9.67676 41.293 9.24154 41.7852 8.93164C42.2819 8.62174 42.8675 8.4668 43.542 8.4668C44.3714 8.4668 45.0596 8.71517 45.6064 9.21191C46.1579 9.70866 46.4518 10.3535 46.4883 11.1465H45.292C45.2555 10.668 45.0732 10.276 44.7451 9.9707C44.4215 9.66081 44.0205 9.50586 43.542 9.50586C42.8994 9.50586 42.4004 9.73828 42.0449 10.2031C41.694 10.6634 41.5186 11.3311 41.5186 12.2061V12.4453C41.5186 13.2975 41.694 13.9538 42.0449 14.4141C42.3958 14.8743 42.8971 15.1045 43.5488 15.1045ZM53.4062 9.62891H50.9248V16H49.6602V9.62891H47.2266V8.60352H53.4062V9.62891ZM59.0938 16C59.0208 15.8542 58.9616 15.5944 58.916 15.2207C58.3281 15.8314 57.6263 16.1367 56.8105 16.1367C56.0814 16.1367 55.4821 15.9316 55.0127 15.5215C54.5479 15.1068 54.3154 14.5827 54.3154 13.9492C54.3154 13.179 54.6071 12.582 55.1904 12.1582C55.7783 11.7298 56.6032 11.5156 57.665 11.5156H58.8955V10.9346C58.8955 10.4925 58.7633 10.1416 58.499 9.88184C58.2347 9.61751 57.8451 9.48535 57.3301 9.48535C56.8789 9.48535 56.5007 9.59928 56.1953 9.82715C55.89 10.055 55.7373 10.3307 55.7373 10.6543H54.4658C54.4658 10.2852 54.5957 9.92969 54.8555 9.58789C55.1198 9.24154 55.4753 8.9681 55.9219 8.76758C56.373 8.56706 56.8675 8.4668 57.4053 8.4668C58.2575 8.4668 58.9251 8.68099 59.4082 9.10938C59.8913 9.5332 60.1419 10.1188 60.1602 10.8662V14.2705C60.1602 14.9495 60.2467 15.4896 60.4199 15.8906V16H59.0938ZM56.9951 15.0361C57.3916 15.0361 57.7676 14.9336 58.123 14.7285C58.4785 14.5234 58.736 14.2568 58.8955 13.9287V12.4111H57.9043C56.3548 12.4111 55.5801 12.8646 55.5801 13.7715C55.5801 14.168 55.7122 14.4779 55.9766 14.7012C56.2409 14.9245 56.5804 15.0361 56.9951 15.0361ZM62.2588 16V8.60352H65.1436C66.1279 8.60352 66.8822 8.77669 67.4062 9.12305C67.9349 9.46484 68.1992 9.96842 68.1992 10.6338C68.1992 10.9756 68.0967 11.2855 67.8916 11.5635C67.6865 11.8369 67.3835 12.0465 66.9824 12.1924C67.429 12.2972 67.7868 12.5023 68.0557 12.8076C68.3291 13.113 68.4658 13.4775 68.4658 13.9014C68.4658 14.5804 68.2152 15.0999 67.7139 15.46C67.2171 15.82 66.513 16 65.6016 16H62.2588ZM63.5234 12.7529V14.9814H65.6152C66.1439 14.9814 66.5381 14.8835 66.7979 14.6875C67.0622 14.4915 67.1943 14.2158 67.1943 13.8604C67.1943 13.1221 66.652 12.7529 65.5674 12.7529H63.5234ZM63.5234 11.7412H65.1572C66.3421 11.7412 66.9346 11.3949 66.9346 10.7021C66.9346 10.0094 66.374 9.65169 65.2529 9.62891H63.5234V11.7412ZM74.9258 8.60352H76.1904V16H74.9258V10.6064L71.5146 16H70.25V8.60352H71.5146V14.0039L74.9258 8.60352ZM83.7168 9.62891H81.2354V16H79.9707V9.62891H77.5371V8.60352H83.7168V9.62891ZM86.3281 11.1533H88.249C89.0876 11.1624 89.7507 11.3812 90.2383 11.8096C90.7259 12.238 90.9697 12.819 90.9697 13.5527C90.9697 14.291 90.7191 14.8835 90.2178 15.3301C89.7165 15.7767 89.042 16 88.1943 16H85.0635V8.60352H86.3281V11.1533ZM86.3281 12.1855V14.9678H88.208C88.682 14.9678 89.0488 14.847 89.3086 14.6055C89.5684 14.3594 89.6982 14.0244 89.6982 13.6006C89.6982 13.1904 89.5706 12.8555 89.3154 12.5957C89.0648 12.3314 88.7116 12.1947 88.2559 12.1855H86.3281ZM100.089 10.627C100.089 10.2806 99.9567 10.0072 99.6924 9.80664C99.4281 9.60156 99.0658 9.49902 98.6055 9.49902C98.1589 9.49902 97.7852 9.61523 97.4844 9.84766C97.1882 10.0801 97.04 10.3535 97.04 10.668H95.7822C95.7822 10.0254 96.0511 9.49902 96.5889 9.08887C97.1266 8.67871 97.7988 8.47363 98.6055 8.47363C99.4714 8.47363 100.146 8.66048 100.629 9.03418C101.112 9.40332 101.354 9.93197 101.354 10.6201C101.354 10.9528 101.253 11.2581 101.053 11.5361C100.852 11.8141 100.567 12.0352 100.198 12.1992C101.06 12.4909 101.49 13.0651 101.49 13.9219C101.49 14.6009 101.228 15.1387 100.704 15.5352C100.18 15.9316 99.4805 16.1299 98.6055 16.1299C97.7533 16.1299 97.0492 15.9225 96.4932 15.5078C95.9417 15.0885 95.666 14.5234 95.666 13.8125H96.9238C96.9238 14.1725 97.0833 14.4824 97.4023 14.7422C97.7259 14.9974 98.127 15.125 98.6055 15.125C99.0885 15.125 99.4782 15.0133 99.7744 14.79C100.071 14.5667 100.219 14.2773 100.219 13.9219C100.219 13.5072 100.093 13.2109 99.8428 13.0332C99.5967 12.8509 99.2116 12.7598 98.6875 12.7598H97.4229V11.6934H98.7969C99.6582 11.6706 100.089 11.3151 100.089 10.627ZM107.697 16C107.624 15.8542 107.565 15.5944 107.52 15.2207C106.932 15.8314 106.23 16.1367 105.414 16.1367C104.685 16.1367 104.086 15.9316 103.616 15.5215C103.151 15.1068 102.919 14.5827 102.919 13.9492C102.919 13.179 103.211 12.582 103.794 12.1582C104.382 11.7298 105.207 11.5156 106.269 11.5156H107.499V10.9346C107.499 10.4925 107.367 10.1416 107.103 9.88184C106.838 9.61751 106.449 9.48535 105.934 9.48535C105.482 9.48535 105.104 9.59928 104.799 9.82715C104.493 10.055 104.341 10.3307 104.341 10.6543H103.069C103.069 10.2852 103.199 9.92969 103.459 9.58789C103.723 9.24154 104.079 8.9681 104.525 8.76758C104.977 8.56706 105.471 8.4668 106.009 8.4668C106.861 8.4668 107.529 8.68099 108.012 9.10938C108.495 9.5332 108.745 10.1188 108.764 10.8662V14.2705C108.764 14.9495 108.85 15.4896 109.023 15.8906V16H107.697ZM105.599 15.0361C105.995 15.0361 106.371 14.9336 106.727 14.7285C107.082 14.5234 107.34 14.2568 107.499 13.9287V12.4111H106.508C104.958 12.4111 104.184 12.8646 104.184 13.7715C104.184 14.168 104.316 14.4779 104.58 14.7012C104.844 14.9245 105.184 15.0361 105.599 15.0361ZM116.399 8.60352V16H115.128V13.1221H113.221L111.478 16H110.11L111.97 12.9307C111.496 12.7575 111.131 12.4909 110.876 12.1309C110.625 11.7663 110.5 11.3424 110.5 10.8594C110.5 10.1849 110.753 9.64258 111.259 9.23242C111.765 8.81771 112.441 8.60807 113.289 8.60352H116.399ZM111.771 10.873C111.771 11.2331 111.895 11.5247 112.141 11.748C112.387 11.9668 112.713 12.0785 113.118 12.083H115.128V9.62891H113.31C112.84 9.62891 112.466 9.74512 112.188 9.97754C111.91 10.2054 111.771 10.5039 111.771 10.873ZM118.546 16V8.60352H121.431C122.415 8.60352 123.169 8.77669 123.693 9.12305C124.222 9.46484 124.486 9.96842 124.486 10.6338C124.486 10.9756 124.384 11.2855 124.179 11.5635C123.974 11.8369 123.671 12.0465 123.27 12.1924C123.716 12.2972 124.074 12.5023 124.343 12.8076C124.616 13.113 124.753 13.4775 124.753 13.9014C124.753 14.5804 124.502 15.0999 124.001 15.46C123.504 15.82 122.8 16 121.889 16H118.546ZM119.811 12.7529V14.9814H121.902C122.431 14.9814 122.825 14.8835 123.085 14.6875C123.349 14.4915 123.481 14.2158 123.481 13.8604C123.481 13.1221 122.939 12.7529 121.854 12.7529H119.811ZM119.811 11.7412H121.444C122.629 11.7412 123.222 11.3949 123.222 10.7021C123.222 10.0094 122.661 9.65169 121.54 9.62891H119.811V11.7412ZM128.731 12.8486H127.809V16H126.537V8.60352H127.809V11.7344H128.636L131.124 8.60352H132.655L129.729 12.1582L132.901 16H131.295L128.731 12.8486ZM136.408 14.1475L138.131 8.60352H139.484L136.511 17.1416C136.05 18.3721 135.319 18.9873 134.316 18.9873L134.077 18.9668L133.605 18.8779V17.8525L133.947 17.8799C134.376 17.8799 134.708 17.7933 134.945 17.6201C135.187 17.4469 135.385 17.1302 135.54 16.6699L135.82 15.918L133.182 8.60352H134.562L136.408 14.1475Z" fill="black"/>
<path d="M30 17.3672H139.655V18.0508H30V17.3672Z" fill="black"/>
<circle cx="12" cy="12" r="12" fill="#FAFF09"/>
<path d="M19 8.05145L9.4 17L5 12.8986L6.128 11.8471L9.4 14.8896L17.872 7L19 8.05145Z" fill="black"/>
</svg>
